<svg width="25" height="25" viewBox="0 0 25 25" fill="none" xmlns="http://www.w3.org/2000/svg">
<path fill-rule="evenodd" clip-rule="evenodd" d="M4.16241 1H21.1624C22.8124 1 24.1624 2.35 24.1624 4V21C24.1624 22.65 22.8124 24 21.1624 24H4.16241C2.51241 24 1.16241 22.65 1.16241 21V4C1.16241 2.35 2.51241 1 4.16241 1ZM22.1624 4C22.1624 3.458 21.7044 3 21.1624 3H4.16241C3.62041 3 3.16241 3.458 3.16241 4V21C3.16241 21.542 3.62041 22 4.16241 22H21.1624C21.7044 22 22.1624 21.542 22.1624 21V4Z" fill="#B5B5B5"/>
<path d="M21.1624 0.5H4.16241V1.5H21.1624V0.5ZM24.6624 4C24.6624 2.07386 23.0886 0.5 21.1624 0.5V1.5C22.5363 1.5 23.6624 2.62614 23.6624 4H24.6624ZM24.6624 21V4H23.6624V21H24.6624ZM21.1624 24.5C23.0886 24.5 24.6624 22.9261 24.6624 21H23.6624C23.6624 22.3739 22.5363 23.5 21.1624 23.5V24.5ZM4.16241 24.5H21.1624V23.5H4.16241V24.5ZM0.662415 21C0.662415 22.9261 2.23627 24.5 4.16241 24.5V23.5C2.78856 23.5 1.66241 22.3739 1.66241 21H0.662415ZM0.662415 4V21H1.66241V4H0.662415ZM4.16241 0.5C2.23627 0.5 0.662415 2.07386 0.662415 4H1.66241C1.66241 2.62614 2.78856 1.5 4.16241 1.5V0.5ZM21.1624 3.5C21.4283 3.5 21.6624 3.73414 21.6624 4H22.6624C22.6624 3.18186 21.9806 2.5 21.1624 2.5V3.5ZM4.16241 3.5H21.1624V2.5H4.16241V3.5ZM3.66241 4C3.66241 3.73414 3.89656 3.5 4.16241 3.5V2.5C3.34427 2.5 2.66241 3.18186 2.66241 4H3.66241ZM3.66241 21V4H2.66241V21H3.66241ZM4.16241 21.5C3.89656 21.5 3.66241 21.2659 3.66241 21H2.66241C2.66241 21.8181 3.34427 22.5 4.16241 22.5V21.5ZM21.1624 21.5H4.16241V22.5H21.1624V21.5ZM21.6624 21C21.6624 21.2659 21.4283 21.5 21.1624 21.5V22.5C21.9806 22.5 22.6624 21.8181 22.6624 21H21.6624ZM21.6624 4V21H22.6624V4H21.6624Z" fill="black"/>
</svg>
